<svg width="138" height="7" viewBox="0 0 138 7" fill="none" xmlns="http://www.w3.org/2000/svg">
<path d="M2.09283 1.56658V6.72869H1.52018V1.56658H0.20874V1.04999H3.39841V1.56658H2.09283Z" fill="#4C4C4C"/>
<path d="M7.8702 6.72673V4.41952C7.8702 4.19423 7.84088 3.98837 7.7803 3.79804C7.71189 3.57664 7.6083 3.39797 7.46758 3.26591C7.21155 3.02703 6.90666 2.90663 6.55094 2.90663C6.19328 2.90663 5.88838 3.02703 5.6304 3.26591C5.49163 3.39603 5.39 3.56887 5.32159 3.7825C5.26296 3.967 5.2356 4.1651 5.2356 4.37873V6.72673H4.69617V1.04803H5.2356V3.06781H5.25123C5.53072 2.63861 5.96265 2.42303 6.55094 2.42303C7.14119 2.42303 7.60244 2.60948 7.9347 2.9843C8.25132 3.34359 8.40963 3.82135 8.40963 4.41952V6.72673H7.8702Z" fill="#4C4C4C"/>
<path d="M10.2038 2.01908V1.04803H10.7432V2.01908H10.2038ZM10.2038 6.72673V2.5318H10.7432V6.72673H10.2038Z" fill="#4C4C4C"/>
<path d="M15.69 6.72673V4.41952C15.69 4.19424 15.6606 3.98837 15.6001 3.79804C15.5317 3.57665 15.4281 3.39797 15.2873 3.26591C15.0313 3.02703 14.7264 2.90663 14.3707 2.90663C14.013 2.90663 13.7081 3.02703 13.4502 3.26591C13.3114 3.39603 13.2098 3.56887 13.1414 3.7825C13.0827 3.967 13.0554 4.1651 13.0554 4.37873V6.72673H12.5159V2.5318H13.0554V3.06781H13.071C13.3505 2.63861 13.7844 2.42303 14.3707 2.42303C14.961 2.42303 15.4222 2.60948 15.7545 2.9843C16.0711 3.34359 16.2294 3.82135 16.2294 4.41952V6.72673H15.69Z" fill="#4C4C4C"/>
<path d="M20.6426 6.72674L19.2549 5.07207L18.5728 5.93049V6.72869H18.0334V1.04999H18.5728V5.09537H18.5885L20.5605 2.53374H21.2543L19.5872 4.65064L21.3403 6.72869H20.6426V6.72674Z" fill="#4C4C4C"/>
<path d="M29.1503 6.25868C28.906 6.41405 28.607 6.53446 28.2532 6.61797C27.9366 6.68983 27.6141 6.72673 27.2877 6.72673H25.6205V1.04803H27.2877C27.616 1.04803 27.9385 1.08493 28.2532 1.16067C28.605 1.24224 28.904 1.36265 29.1503 1.51608C30.0142 2.06569 30.4461 2.86002 30.4461 3.90292C30.4461 4.91476 30.0142 5.69935 29.1503 6.25868ZM28.9001 1.99966C28.646 1.82293 28.347 1.70057 27.9991 1.63648C27.8525 1.6093 27.6923 1.58987 27.5164 1.57628C27.3756 1.56851 27.2095 1.56463 27.0199 1.56463H26.1952V6.21207H27.1411C27.3326 6.21207 27.4968 6.20625 27.6356 6.19654C27.8056 6.18489 27.962 6.16352 28.1027 6.13245C28.4291 6.06253 28.7223 5.93435 28.9803 5.74985C29.2636 5.54593 29.4865 5.26822 29.6467 4.91864C29.7972 4.58848 29.8734 4.24279 29.8734 3.87768C29.8734 3.0717 29.549 2.4444 28.9001 1.99966Z" fill="#4C4C4C"/>
<path d="M32.0663 2.01908V1.04803H32.6058V2.01908H32.0663ZM32.0663 6.72673V2.5318H32.6058V6.72673H32.0663Z" fill="#4C4C4C"/>
<path d="M35.2169 3.01538V6.72673H34.6775V3.01538H34.0208V2.5318H34.6775L34.6853 2.37448C34.6873 2.31427 34.6912 2.26184 34.6971 2.21717C34.7068 2.10064 34.7244 1.99577 34.7498 1.90255C34.8436 1.55491 35.0371 1.30438 35.3342 1.14901C35.5785 1.02084 35.899 0.954812 36.2997 0.950928V1.45005C35.5785 1.45005 35.2169 1.80157 35.2169 2.50266V2.5318H36.2997V3.01538H35.2169Z" fill="#4C4C4C"/>
<path d="M38.4125 3.01538V6.72673H37.8731V3.01538H37.2164V2.5318H37.8731L37.8809 2.37448C37.8828 2.31427 37.8867 2.26184 37.8926 2.21717C37.9024 2.10064 37.92 1.99577 37.9454 1.90255C38.0392 1.55491 38.2327 1.30438 38.5298 1.14901C38.7741 1.02084 39.0946 0.954812 39.4953 0.950928V1.45005C38.7741 1.45005 38.4125 1.80157 38.4125 2.50266V2.5318H39.4953V3.01538H38.4125Z" fill="#4C4C4C"/>
<path d="M44.9599 4.82349H41.1155C41.135 5.23521 41.3109 5.59255 41.6393 5.89552C41.9657 6.1946 42.337 6.34414 42.7553 6.34414C43.0875 6.34414 43.3905 6.25675 43.668 6.08196C43.9553 5.89941 44.1547 5.65664 44.268 5.35173H44.8407C44.6843 5.79065 44.4166 6.14605 44.0335 6.41989C43.6524 6.69178 43.2283 6.82774 42.7631 6.82774C42.1553 6.82774 41.6354 6.61216 41.2015 6.17907C40.7735 5.75181 40.5604 5.23716 40.5604 4.63122C40.5604 4.02917 40.7735 3.51063 41.2015 3.07754C41.6334 2.64057 42.1514 2.42111 42.7553 2.42111C43.369 2.42111 43.8908 2.64444 44.3227 3.09113C44.7527 3.53393 44.9677 4.0583 44.9677 4.66812L44.9599 4.82349ZM44.4127 4.34184C44.3423 3.92817 44.1547 3.58443 43.8517 3.31642C43.5449 3.04452 43.1813 2.90857 42.7631 2.90857C42.3468 2.90857 41.9833 3.04452 41.6745 3.31642C41.3696 3.58637 41.1839 3.92817 41.1174 4.34184H44.4127Z" fill="#4C4C4C"/>
<path d="M48.3059 2.99209C47.5007 3.05618 47.1 3.48344 47.1 4.27387V6.72674H46.5606V2.53181H47.1V3.13775H47.1157C47.2271 2.88527 47.3854 2.70272 47.5945 2.59007C47.7646 2.50074 48.003 2.44442 48.3079 2.42111V2.99209H48.3059Z" fill="#4C4C4C"/>
<path d="M53.8429 4.82349H49.9985C50.018 5.23521 50.1939 5.59255 50.5223 5.89552C50.8487 6.1946 51.22 6.34414 51.6383 6.34414C51.9705 6.34414 52.2735 6.25675 52.551 6.08196C52.8383 5.89941 53.0377 5.65664 53.151 5.35173H53.7237C53.5673 5.79065 53.2996 6.14605 52.9165 6.41989C52.5354 6.69178 52.1112 6.82774 51.6461 6.82774C51.0383 6.82774 50.5184 6.61216 50.0845 6.17907C49.6565 5.75181 49.4434 5.23716 49.4434 4.63122C49.4434 4.02917 49.6565 3.51063 50.0845 3.07754C50.5164 2.64057 51.0343 2.42111 51.6383 2.42111C52.252 2.42111 52.7738 2.64444 53.2057 3.09113C53.6357 3.53393 53.8507 4.0583 53.8507 4.66812L53.8429 4.82349ZM53.2976 4.34184C53.2272 3.92817 53.0396 3.58443 52.7367 3.31642C52.4298 3.04452 52.0663 2.90857 51.648 2.90857C51.2317 2.90857 50.8682 3.04452 50.5594 3.31642C50.2545 3.58637 50.0688 3.92817 50.0024 4.34184H53.2976Z" fill="#4C4C4C"/>
<path d="M58.6196 6.72673V4.41952C58.6196 4.19424 58.5903 3.98837 58.5297 3.79804C58.4613 3.57665 58.3577 3.39797 58.217 3.26591C57.9609 3.02703 57.656 2.90663 57.3003 2.90663C56.9427 2.90663 56.6378 3.02703 56.3798 3.26591C56.241 3.39603 56.1394 3.56887 56.071 3.7825C56.0124 3.967 55.985 4.1651 55.985 4.37873V6.72673H55.4456V2.5318H55.985V3.06781H56.0006C56.2801 2.63861 56.714 2.42303 57.3003 2.42303C57.8906 2.42303 58.3518 2.60948 58.6841 2.9843C59.0007 3.34359 59.159 3.82135 59.159 4.41952V6.72673H58.6196Z" fill="#4C4C4C"/>
<path d="M61.9578 3.01538V6.72673H61.4183V3.01538H60.5291V2.5318H61.4183V1.04803H61.9578V2.5318H62.9682V3.01538H61.9578Z" fill="#4C4C4C"/>
<path d="M66.9514 4.82348V4.31076H69.0505V4.82348H66.9514Z" fill="#4C4C4C"/>
<path d="M78.8951 6.72673V1.66951H78.8795L76.7413 6.72673H76.2547L74.1321 1.66951H74.1165V6.72673H73.5438V1.04803H74.4214L76.499 5.88386L78.5844 1.04803H79.4658V6.72673H78.8951Z" fill="#4C4C4C"/>
<path d="M85.0809 6.72673V5.98874H85.0653C84.6939 6.54806 84.1447 6.82773 83.4216 6.82773C82.7864 6.82773 82.2489 6.61604 81.8111 6.1946C81.3714 5.77316 81.1505 5.24686 81.1505 4.61762C81.1505 3.9942 81.3733 3.46983 81.817 3.0484C82.2567 2.63085 82.7903 2.42303 83.4196 2.42303C84.1565 2.42303 84.7037 2.70464 85.0633 3.26591H85.079V2.5318H85.6223V6.72673H85.0809ZM84.6275 3.41933C84.2991 3.07752 83.8965 2.90663 83.4216 2.90663C82.9212 2.90663 82.5089 3.0717 82.1805 3.40186C81.8522 3.73202 81.6899 4.14569 81.6899 4.64092C81.6899 5.13033 81.8541 5.53817 82.1844 5.8625C82.5128 6.18489 82.9252 6.34608 83.4216 6.34608C83.8965 6.34608 84.2991 6.17712 84.6275 5.84114C84.9519 5.50904 85.1141 5.10702 85.1141 4.63509C85.1141 4.16122 84.9519 3.75726 84.6275 3.41933Z" fill="#4C4C4C"/>
<path d="M90.0179 6.72674L88.6302 5.07207L87.9481 5.93049V6.72869H87.4087V1.04999H87.9481V5.09537H87.9638L89.9358 2.53374H90.6296L88.9625 4.65064L90.7156 6.72869H90.0179V6.72674Z" fill="#4C4C4C"/>
<path d="M96.0709 4.82349H92.2265C92.246 5.23521 92.4219 5.59255 92.7502 5.89552C93.0766 6.1946 93.448 6.34414 93.8662 6.34414C94.1985 6.34414 94.5014 6.25675 94.779 6.08196C95.0663 5.89941 95.2656 5.65664 95.379 5.35173H95.9516C95.7953 5.79065 95.5275 6.14605 95.1445 6.41989C94.7633 6.69178 94.3392 6.82774 93.8741 6.82774C93.2662 6.82774 92.7463 6.61216 92.3124 6.17907C91.8844 5.75181 91.6714 5.23716 91.6714 4.63122C91.6714 4.02917 91.8844 3.51063 92.3124 3.07754C92.7444 2.64057 93.2623 2.42111 93.8662 2.42111C94.4799 2.42111 95.0018 2.64444 95.4337 3.09113C95.8637 3.53393 96.0787 4.0583 96.0787 4.66812L96.0709 4.82349ZM95.5236 4.34184C95.4533 3.92817 95.2656 3.58443 94.9627 3.31642C94.6558 3.04452 94.2923 2.90857 93.8741 2.90857C93.4578 2.90857 93.0942 3.04452 92.7854 3.31642C92.4805 3.58637 92.2949 3.92817 92.2284 4.34184H95.5236Z" fill="#4C4C4C"/>
<path d="M104.178 6.25868C103.934 6.41405 103.635 6.53446 103.281 6.61797C102.964 6.68983 102.642 6.72673 102.315 6.72673H100.648V1.04803H102.315C102.644 1.04803 102.966 1.08493 103.281 1.16067C103.633 1.24224 103.932 1.36265 104.178 1.51608C105.042 2.06569 105.474 2.86002 105.474 3.90292C105.474 4.91476 105.042 5.69935 104.178 6.25868ZM103.93 1.99966C103.676 1.82293 103.377 1.70057 103.029 1.63648C102.882 1.6093 102.722 1.58987 102.546 1.57628C102.405 1.56851 102.239 1.56463 102.05 1.56463H101.225V6.21207H102.171C102.362 6.21207 102.526 6.20625 102.665 6.19654C102.835 6.18489 102.992 6.16352 103.132 6.13245C103.459 6.06253 103.752 5.93435 104.01 5.74985C104.293 5.54593 104.516 5.26822 104.676 4.91864C104.827 4.58848 104.903 4.24279 104.903 3.87768C104.901 3.0717 104.577 2.4444 103.93 1.99966Z" fill="#4C4C4C"/>
<path d="M107.094 2.01908V1.04803H107.633V2.01908H107.094ZM107.094 6.72673V2.5318H107.633V6.72673H107.094Z" fill="#4C4C4C"/>
<path d="M110.245 3.01538V6.72673H109.705V3.01538H109.048V2.5318H109.705L109.713 2.37448C109.715 2.31427 109.719 2.26184 109.725 2.21717C109.734 2.10064 109.752 1.99577 109.777 1.90255C109.871 1.55491 110.065 1.30438 110.362 1.14901C110.606 1.02084 110.927 0.954812 111.327 0.950928V1.45005C110.606 1.45005 110.245 1.80157 110.245 2.50266V2.5318H111.327V3.01538H110.245Z" fill="#4C4C4C"/>
<path d="M113.442 3.01538V6.72673H112.903V3.01538H112.246V2.5318H112.903L112.91 2.37448C112.912 2.31427 112.916 2.26184 112.922 2.21717C112.932 2.10064 112.95 1.99577 112.975 1.90255C113.069 1.55491 113.262 1.30438 113.559 1.14901C113.804 1.02084 114.124 0.954812 114.525 0.950928V1.45005C113.804 1.45005 113.442 1.80157 113.442 2.50266V2.5318H114.525V3.01538H113.442Z" fill="#4C4C4C"/>
<path d="M119.987 4.82349H116.143C116.163 5.23521 116.339 5.59255 116.667 5.89552C116.993 6.1946 117.365 6.34414 117.783 6.34414C118.115 6.34414 118.418 6.25675 118.696 6.08196C118.983 5.89941 119.182 5.65664 119.296 5.35173H119.868C119.712 5.79065 119.444 6.14605 119.061 6.41989C118.68 6.69178 118.256 6.82774 117.791 6.82774C117.183 6.82774 116.663 6.61216 116.229 6.17907C115.801 5.75181 115.588 5.23716 115.588 4.63122C115.588 4.02917 115.801 3.51063 116.229 3.07754C116.661 2.64057 117.179 2.42111 117.783 2.42111C118.397 2.42111 118.918 2.64444 119.35 3.09113C119.78 3.53393 119.995 4.0583 119.995 4.66812L119.987 4.82349ZM119.442 4.34184C119.372 3.92817 119.184 3.58443 118.881 3.31642C118.574 3.04452 118.211 2.90857 117.793 2.90857C117.376 2.90857 117.013 3.04452 116.704 3.31642C116.399 3.58637 116.213 3.92817 116.147 4.34184H119.442Z" fill="#4C4C4C"/>
<path d="M123.335 2.99209C122.53 3.05618 122.13 3.48344 122.13 4.27387V6.72674H121.59V2.53181H122.13V3.13775H122.145C122.257 2.88527 122.415 2.70272 122.624 2.59007C122.794 2.50074 123.033 2.44442 123.337 2.42111V2.99209H123.335Z" fill="#4C4C4C"/>
<path d="M128.872 4.82349H125.028C125.048 5.23521 125.223 5.59255 125.552 5.89552C125.878 6.1946 126.25 6.34414 126.668 6.34414C127 6.34414 127.303 6.25675 127.581 6.08196C127.868 5.89941 128.067 5.65664 128.181 5.35173H128.753C128.597 5.79065 128.329 6.14605 127.946 6.41989C127.565 6.69178 127.141 6.82774 126.676 6.82774C126.068 6.82774 125.548 6.61216 125.114 6.17907C124.686 5.75181 124.473 5.23716 124.473 4.63122C124.473 4.02917 124.686 3.51063 125.114 3.07754C125.546 2.64057 126.064 2.42111 126.668 2.42111C127.282 2.42111 127.803 2.64444 128.235 3.09113C128.665 3.53393 128.88 4.0583 128.88 4.66812L128.872 4.82349ZM128.325 4.34184C128.255 3.92817 128.067 3.58443 127.764 3.31642C127.457 3.04452 127.094 2.90857 126.676 2.90857C126.259 2.90857 125.896 3.04452 125.587 3.31642C125.282 3.58637 125.096 3.92817 125.03 4.34184H128.325Z" fill="#4C4C4C"/>
<path d="M133.647 6.72673V4.41952C133.647 4.19424 133.618 3.98837 133.557 3.79804C133.489 3.57665 133.385 3.39797 133.245 3.26591C132.989 3.02703 132.684 2.90663 132.328 2.90663C131.97 2.90663 131.665 3.02703 131.407 3.26591C131.269 3.39603 131.167 3.56887 131.099 3.7825C131.04 3.967 131.013 4.1651 131.013 4.37873V6.72673H130.473V2.5318H131.013V3.06781H131.028C131.308 2.63861 131.742 2.42303 132.328 2.42303C132.918 2.42303 133.379 2.60948 133.712 2.9843C134.028 3.34359 134.187 3.82135 134.187 4.41952V6.72673H133.647Z" fill="#4C4C4C"/>
<path d="M136.985 3.01538V6.72673H136.446V3.01538H135.557V2.5318H136.446V1.04803H136.985V2.5318H137.996V3.01538H136.985Z" fill="#4C4C4C"/>
</svg>
