<svg width="132" height="243" viewBox="0 0 132 243" fill="none" xmlns="http://www.w3.org/2000/svg">
<path d="M95.9925 99.345L69.4125 72.765L27.6525 31.005L11.7725 15.135C-8.40751 -5.045 -41.2375 -5.045 -61.4175 15.135C-71.1875 24.905 -76.5775 37.905 -76.5775 51.725C-76.5775 65.545 -71.1975 78.545 -61.4175 88.315L-42.7575 106.975C-39.3375 110.395 -34.8575 112.105 -30.3875 112.105C-25.9175 112.105 -21.4275 110.395 -18.0175 106.975C-11.1875 100.145 -11.1875 89.065 -18.0175 82.225L-36.6775 63.565C-43.2075 57.035 -43.2075 46.405 -36.6775 39.875C-33.5175 36.715 -29.3075 34.965 -24.8375 34.965C-20.3675 34.965 -16.1575 36.705 -12.9975 39.875L2.88249 55.755L44.6425 97.515L71.2225 124.095C104.533 157.405 104.533 211.605 71.2225 244.905C55.0825 261.045 33.6325 269.925 10.8125 269.925C-12.0075 269.925 -33.4575 261.035 -49.5975 244.905L-96.1275 198.365C-102.958 191.535 -114.038 191.535 -120.878 198.365C-127.707 205.195 -127.707 216.275 -120.878 223.115L-74.3275 269.665C-51.5775 292.415 -21.3375 304.935 10.8325 304.935C43.0025 304.935 73.2425 292.405 95.9925 269.665C142.943 222.705 142.943 146.305 95.9925 99.345Z" fill="white"/>
</svg>
