<svg width="224" height="166" viewBox="0 0 224 166" fill="none" xmlns="http://www.w3.org/2000/svg">
<path d="M289.18 -20.09L205.54 -103.73C182.79 -126.47 152.55 -139 120.38 -139C88.21 -139 57.97 -126.47 35.22 -103.73C-11.74 -56.77 -11.74 19.63 35.22 66.58L61.85 93.21L103.55 134.91L119.41 150.77C129.5 160.86 142.75 165.9 156 165.9C169.25 165.9 182.5 160.86 192.59 150.77C202.36 141 207.75 128 207.75 114.18C207.75 100.36 202.37 87.36 192.59 77.59L177.48 62.48C170.65 55.65 159.56 55.65 152.73 62.48C145.9 69.31 145.9 80.39 152.73 87.23L167.84 102.34C171 105.5 172.75 109.71 172.75 114.18C172.75 118.65 171.01 122.86 167.84 126.02C164.67 129.18 160.47 130.93 156 130.93C151.53 130.93 147.32 129.19 144.16 126.02L128.3 110.16L86.6 68.46L59.97 41.83C26.66 8.52 26.66 -45.68 59.97 -78.98C93.28 -112.29 147.48 -112.29 180.78 -78.98L264.42 4.66C271.25 11.49 282.33 11.49 289.17 4.66C296.01 -2.17 296.01 -13.25 289.18 -20.09Z" fill="white"/>
</svg>
