<svg width="89" height="16" viewBox="0 0 89 16" fill="none" xmlns="http://www.w3.org/2000/svg">
<path d="M6.30996 6.66077L5.29169 6.35975C4.92816 6.24517 4.63499 6.1267 4.42587 6.01018C3.94898 5.74217 3.73594 5.40035 3.73594 4.90318C3.73594 4.44678 3.88253 4.09721 4.20306 3.80007C4.52163 3.49904 4.90666 3.35339 5.38159 3.35339C5.82721 3.35339 6.18292 3.50681 6.50345 3.83697C6.82007 4.16518 6.97447 4.54389 6.97447 4.9964V5.67613H9.63449V4.9964C9.63449 3.81949 9.21233 2.81542 8.37973 2.01528C7.56472 1.23261 6.55622 0.836426 5.37964 0.836426C4.19719 0.836426 3.18088 1.22096 2.3561 1.98032C1.50591 2.76493 1.07397 3.76511 1.07397 4.95367C1.07397 6.16943 1.48832 7.12688 2.31114 7.80273C2.63754 8.0688 3.05188 8.30574 3.53073 8.50771C3.88448 8.66114 4.334 8.81845 4.90275 8.98547C5.29755 9.102 5.62785 9.21464 5.87216 9.31369C6.18683 9.44769 6.44677 9.59335 6.64222 9.74095C7.08197 10.0808 7.28719 10.5003 7.28719 11.0616C7.28719 11.5918 7.10347 12.0268 6.72821 12.3919C6.35882 12.7512 5.91711 12.924 5.37769 12.924C4.03888 12.924 3.44082 12.3278 3.38219 10.9315L3.35482 10.2809H0.712402L0.722172 10.9703C0.741717 12.2987 1.19711 13.3902 2.0727 14.2136C2.93852 15.0332 4.04866 15.4488 5.37573 15.4488C6.62463 15.4488 7.70544 15.0215 8.58495 14.1786C9.48595 13.3222 9.94329 12.256 9.94329 11.0091C9.94329 9.88661 9.58563 8.92915 8.88007 8.16008C8.27223 7.49394 7.40446 6.98899 6.30996 6.66077Z" fill="black"/>
<path d="M17.7181 8.4145H11.6144V10.9315H17.7181V8.4145Z" fill="black"/>
<path d="M24.6505 10.5003H31.5341C31.2292 11.0674 30.7739 11.5607 30.1582 11.9957C29.2709 12.6211 28.3406 12.926 27.3145 12.926C25.9346 12.926 24.7854 12.4754 23.7984 11.549C22.8094 10.6149 22.3287 9.50595 22.3287 8.15619C22.3287 6.8142 22.8055 5.70332 23.7886 4.75752C24.7639 3.81366 25.9014 3.35338 27.2637 3.35338C28.0611 3.35338 28.835 3.54565 29.5621 3.92436C30.3204 4.32249 30.8735 4.83521 31.2547 5.48775L31.452 5.82762H34.3642L33.9772 4.88959C33.7681 4.38076 33.4456 3.88358 33.0254 3.41553C31.5126 1.70454 29.5699 0.836426 27.248 0.836426C25.2056 0.836426 23.4231 1.5414 21.9495 2.93195C20.4367 4.35551 19.6706 6.10729 19.6706 8.13872C19.6706 10.1546 20.4426 11.9044 21.9671 13.3377C23.4583 14.7399 25.2408 15.4507 27.2656 15.4507C29.1986 15.4507 30.9048 14.8079 32.3374 13.5378C33.7876 12.2521 34.6007 10.6304 34.757 8.71746L34.8176 7.98334H24.6525V10.5003H24.6505Z" fill="black"/>
<path d="M45.7606 9.06898C46.6265 8.20863 47.0662 7.13465 47.0662 5.87617C47.0662 3.92824 46.1378 2.45419 44.3788 1.61132C43.9 1.38604 43.3215 1.23456 42.6003 1.14522C42.3364 1.11609 42.0452 1.09084 41.7325 1.07336C41.4882 1.06171 41.2146 1.05588 40.9175 1.05588H36.9597V15.2216H39.6197V9.10783L44.2303 15.2216H47.5724L43.7769 10.242C44.5332 10.0206 45.1977 9.62831 45.7606 9.06898ZM39.6178 3.58255H41.1774C41.6719 3.58255 42.0726 3.60586 42.3579 3.64858C42.7234 3.70879 43.0615 3.82143 43.3606 3.98068C44.0798 4.36716 44.414 4.9595 44.414 5.84121C44.414 6.92491 43.9078 7.55997 42.7625 7.90567C42.5749 7.96587 42.2172 8.03967 41.5898 8.05909L39.6178 8.07074V3.58255Z" fill="black"/>
<path d="M56.3342 0.836426C54.2762 0.836426 52.4957 1.555 51.0415 2.97467C49.5816 4.40794 48.8408 6.16749 48.8408 8.20669C48.8408 10.1993 49.6011 11.9297 51.1021 13.3552C52.5758 14.7457 54.3367 15.4507 56.3342 15.4507C58.3629 15.4507 60.1317 14.738 61.5956 13.3338C63.0888 11.9064 63.8452 10.1585 63.8452 8.13872C63.8452 6.11894 63.0908 4.37493 61.6054 2.95331C60.1415 1.54918 58.3668 0.836426 56.3342 0.836426ZM59.7486 11.5257C58.7851 12.4696 57.6671 12.9279 56.3342 12.9279C55.0169 12.9279 53.9087 12.4715 52.9432 11.5335C51.9719 10.5935 51.5008 9.50596 51.5008 8.21058C51.5008 6.86859 51.9621 5.74799 52.91 4.78471C53.8618 3.82337 54.9817 3.35727 56.3342 3.35727C57.671 3.35727 58.7909 3.81949 59.7545 4.77306C60.718 5.72469 61.1852 6.83363 61.1852 8.16008C61.1852 9.48265 60.7141 10.5838 59.7486 11.5257Z" fill="black"/>
<path d="M73.4416 9.71958C73.4416 10.0963 73.4122 10.4576 73.3556 10.7975C73.295 11.1878 73.2031 11.4927 73.0839 11.7064C72.6246 12.5376 71.9699 12.924 71.0219 12.924C70.074 12.924 69.4193 12.5376 68.958 11.7005C68.8408 11.4908 68.7489 11.1878 68.6883 10.7994C68.6375 10.4634 68.6102 10.1002 68.6102 9.71958V1.05588H65.9501V9.71958C65.9501 10.2342 65.9912 10.7314 66.0694 11.1859C66.1573 11.7471 66.3019 12.2443 66.4993 12.6696C67.3534 14.4913 68.917 15.4527 71.0219 15.4527C73.1562 15.4527 74.6768 14.5166 75.5465 12.6677C75.742 12.2482 75.8885 11.753 75.9843 11.1878C76.0586 10.7275 76.0938 10.2342 76.0938 9.72153V1.05782H73.4416V9.71958Z" fill="black"/>
<path d="M86.3762 1.92594C85.8582 1.57636 85.2348 1.32972 84.5096 1.19377C84.2282 1.14522 83.9174 1.10832 83.5793 1.08307C83.3155 1.06559 83.0067 1.05588 82.6666 1.05588H78.3942V15.2216H81.0542V10.0692H82.6666C83.0106 10.0692 83.3194 10.0595 83.5832 10.042C83.9155 10.0187 84.2282 9.98177 84.5155 9.93127C85.2308 9.80115 85.8563 9.5584 86.3781 9.20688C87.6348 8.34847 88.2739 7.123 88.2739 5.56349C88.272 4.00205 87.6348 2.77852 86.3762 1.92594ZM85.6217 5.56349C85.6217 6.38306 85.2699 6.93074 84.5155 7.29002C84.2673 7.40655 83.9859 7.48229 83.6751 7.51336L83.1572 7.54444H81.0561V3.58255H83.1572L83.6751 3.61363C83.9839 3.64664 84.2653 3.72239 84.5194 3.84668C85.2699 4.20014 85.6217 4.74587 85.6217 5.56349Z" fill="black"/>
</svg>
